<?xml version="1.0" encoding="UTF-8"?>
<svg version="1.1" xmlns="http://www.w3.org/2000/svg" width="512" height="512">
<path d="M0 0 C2.4719687 1.00760375 4.69517201 2.04138985 7.03125 3.296875 C7.69480499 3.64126114 8.35835999 3.98564728 9.04202271 4.34046936 C11.20111943 5.46513571 13.35044943 6.60720962 15.5 7.75 C17.00913365 8.5408537 18.51874101 9.33080408 20.02880859 10.11987305 C28.77942008 14.70562 37.46700184 19.40187916 46.109375 24.18847656 C55.46593751 29.33251591 64.99011046 34.14785584 74.5 39 C96.81008178 50.39446938 96.81008178 50.39446938 107.1875 56 C108.05246094 56.46148437 108.91742188 56.92296875 109.80859375 57.3984375 C110.5871875 57.82382813 111.36578125 58.24921875 112.16796875 58.6875 C112.82047607 59.04199219 113.4729834 59.39648438 114.14526367 59.76171875 C117.25381453 61.83708666 119.70978183 63.61359255 120.50057125 67.39128971 C120.50078053 68.28471797 120.50098982 69.17814623 120.50120544 70.09864807 C120.51103958 71.12845795 120.52087372 72.15826782 120.53100586 73.21928406 C120.52133789 74.34389542 120.51166992 75.46850677 120.50170898 76.62719727 C120.50981346 78.41108856 120.50981346 78.41108856 120.51808167 80.23101807 C120.5284534 83.49458295 120.52084703 86.75749059 120.50437045 90.02101254 C120.49047839 93.45411123 120.49698656 96.88718055 120.50050354 100.32029724 C120.50320786 106.10155649 120.4897299 111.88260849 120.46655273 117.66381836 C120.44013012 124.29944012 120.43813442 130.93471129 120.4499411 137.5703674 C120.46083036 143.99040133 120.45443351 150.41031137 120.44038582 156.83033562 C120.4347024 159.54155426 120.43464761 162.25267991 120.43945122 164.96389961 C120.45332218 182.89531357 120.46230287 201.14451685 114.3125 218.25 C114.05758789 218.98049561 113.80267578 219.71099121 113.54003906 220.46362305 C104.29385154 245.92930261 86.36399242 264.19397241 64.41650391 279.33203125 C61.97001732 281.02069526 59.53635354 282.7264661 57.10546875 284.4375 C52.92162164 287.38007187 48.72850834 290.30908317 44.53222656 293.23388672 C40.35082658 296.15022373 36.17578923 299.075638 32 302 C31.18821289 302.56799316 30.37642578 303.13598633 29.54003906 303.72119141 C25.14609562 306.79556187 20.75494813 309.87384184 16.3671875 312.95703125 C15.44808594 313.60220703 14.52898437 314.24738281 13.58203125 314.91210938 C11.81043064 316.1558088 10.03956738 317.40055939 8.26953125 318.64648438 C7.47675781 319.20271484 6.68398438 319.75894531 5.8671875 320.33203125 C5.16706543 320.82421143 4.46694336 321.3163916 3.74560547 321.82348633 C0.02869428 324.32863249 -2.50264316 324.47149709 -7 324 C-9.92715164 322.50309223 -12.41980934 320.52572603 -15 318.5 C-16.59067023 317.30102333 -18.18321148 316.10452602 -19.77734375 314.91015625 C-20.62022949 314.27352051 -21.46311523 313.63688477 -22.33154297 312.98095703 C-26.99521248 309.51883312 -31.78249035 306.23610661 -36.5625 302.9375 C-38.52119567 301.57994972 -40.4795338 300.22188342 -42.4375 298.86328125 C-43.37851563 298.21053223 -44.31953125 297.5577832 -45.2890625 296.88525391 C-51.24444051 292.74373472 -57.1671396 288.5560876 -63.08300781 284.35839844 C-64.98768783 283.00872452 -66.8959451 281.66423304 -68.8046875 280.3203125 C-96.97014003 260.43969588 -118.46196532 237.03044815 -124.52570534 201.95946693 C-125.7499603 193.89001592 -126.29711792 186.06310876 -126.29052734 177.90771484 C-126.29724457 176.68314575 -126.30396179 175.45857666 -126.31088257 174.19689941 C-126.32645509 170.88760814 -126.33322662 167.57846877 -126.33451414 164.26914549 C-126.33594718 162.19693296 -126.34023765 160.12474595 -126.34550858 158.05253983 C-126.36390822 150.81186525 -126.37218949 143.5712636 -126.37060547 136.33056641 C-126.36939783 129.59443586 -126.39064688 122.85862244 -126.4220928 116.1225723 C-126.44822573 110.31674017 -126.45897445 104.51101215 -126.45769465 98.70512164 C-126.45718533 95.24653088 -126.46285516 91.78822461 -126.48405075 88.32969284 C-126.50697767 84.48578056 -126.49793082 80.64230945 -126.48583984 76.79833984 C-126.49707886 75.65652252 -126.50831787 74.5147052 -126.51989746 73.33828735 C-126.507314 71.77011261 -126.507314 71.77011261 -126.49447632 70.17025757 C-126.49556585 69.26296087 -126.49665539 68.35566418 -126.49777794 67.42087364 C-125.84187737 64.23099261 -124.46297803 63.05930709 -122 61 C-119.78369141 59.63476562 -119.78369141 59.63476562 -117.3515625 58.40625 C-116.44132324 57.94017334 -115.53108398 57.47409668 -114.59326172 56.99389648 C-113.61373535 56.50091064 -112.63420898 56.0079248 -111.625 55.5 C-109.51468229 54.4198085 -107.40532756 53.33773388 -105.296875 52.25390625 C-103.70069336 51.4343042 -103.70069336 51.4343042 -102.07226562 50.59814453 C-97.63033836 48.28752344 -93.25416029 45.86430053 -88.875 43.4375 C-76.4032195 36.5617471 -63.70230391 30.13144528 -51.02462769 23.64685059 C-50.24693024 23.24905396 -49.46923279 22.85125732 -48.66796875 22.44140625 C-47.52015427 21.85437927 -47.52015427 21.85437927 -46.34915161 21.25549316 C-40.59011077 18.30785674 -34.84735663 15.33083216 -29.125 12.3125 C-28.40973145 11.93673828 -27.69446289 11.56097656 -26.95751953 11.17382812 C-23.53187854 9.36700394 -20.13233182 7.52264949 -16.75390625 5.62890625 C-15.72402588 5.05885864 -15.72402588 5.05885864 -14.67333984 4.47729492 C-13.40574096 3.77367936 -12.14366105 3.05996324 -10.88916016 2.33325195 C-7.0089986 0.18688695 -4.39510812 -0.39814002 0 0 Z " fill="#5FB5FC" transform="translate(259,28)"/>
<path d="M0 0 C6.9643851 3.97964863 11.00834056 10.0001986 13.21875 17.64453125 C14.30568858 23.94668476 13.28271272 30.27268218 10.1796875 35.8671875 C5.08774175 42.85262062 -1.8186143 48.68204879 -8.359375 54.265625 C-10.67614621 56.25912581 -12.92919984 58.31554388 -15.1875 60.375 C-19.48459827 64.25350727 -23.91258754 67.92865968 -28.4140625 71.56640625 C-31.07295946 73.75175296 -33.67602537 75.98441844 -36.27026367 78.24511719 C-44.67850091 85.56034292 -53.44903573 92.33110412 -62.375 99 C-63.02645996 99.48887695 -63.67791992 99.97775391 -64.34912109 100.48144531 C-100.09359047 127.25557683 -140.57943441 154.93437515 -187.3046875 148.45507812 C-195.227624 147.13335028 -203.07924313 145.40380478 -210.93164062 143.72216797 C-244.61969315 136.65684896 -279.15445076 137.72957393 -313.375 138 C-313.97183594 139.10601562 -314.56867188 140.21203125 -315.18359375 141.3515625 C-317.72783137 146.06637 -321.329896 148.31829867 -326.375 150 C-330.12011744 150.28318838 -333.87036569 150.27760563 -337.625 150.3125 C-338.64980469 150.34150391 -339.67460937 150.37050781 -340.73046875 150.40039062 C-347.2135824 150.45462517 -351.10617608 149.85437455 -356.375 146 C-362.10077104 140.11947839 -362.67334186 133.90052632 -362.6496582 126.09228516 C-362.65476913 125.21668442 -362.65988007 124.34108368 -362.66514587 123.43894958 C-362.67900176 120.5555836 -362.67808801 117.67245774 -362.67578125 114.7890625 C-362.67967057 112.77655957 -362.68400572 110.76405745 -362.68876648 108.7515564 C-362.69622023 104.5368178 -362.69594366 100.32216299 -362.69067383 96.10742188 C-362.68488242 90.71846695 -362.70180648 85.32985609 -362.7250185 79.94095802 C-362.73978355 75.78526825 -362.74062373 71.62966079 -362.73750877 67.47394943 C-362.73802066 65.48771865 -362.74323338 63.5014831 -362.75332069 61.51527786 C-362.76572057 58.73212889 -362.75887201 55.94964306 -362.74731445 53.16650391 C-362.75495819 52.35377518 -362.76260193 51.54104645 -362.77047729 50.70368958 C-362.71425457 44.54772495 -361.72790623 38.81813996 -357.65625 33.94140625 C-356.77453125 33.25884766 -356.77453125 33.25884766 -355.875 32.5625 C-355.2871875 32.08941406 -354.699375 31.61632812 -354.09375 31.12890625 C-349.33634815 28.00415822 -343.65526232 28.73853698 -338.1875 28.6875 C-337.17107422 28.65849609 -336.15464844 28.62949219 -335.10742188 28.59960938 C-328.74982262 28.54625315 -323.58799556 29.10486843 -318.375 33 C-317.735625 33.928125 -317.09625 34.85625 -316.4375 35.8125 C-315.756875 36.534375 -315.07625 37.25625 -314.375 38 C-306.95600593 37.67579599 -299.95647315 35.80972812 -292.8125 33.875 C-291.66225342 33.56369141 -290.51200684 33.25238281 -289.3269043 32.93164062 C-280.22900315 30.3904917 -271.83624896 27.15448915 -263.375 23 C-258.40040862 20.60901478 -253.40931101 18.26280878 -248.375 16 C-247.56417969 15.63519531 -246.75335938 15.27039063 -245.91796875 14.89453125 C-228.62194178 8.44259825 -210.522146 14.62060287 -193.86720276 19.94889832 C-188.50036741 21.66400437 -183.10593311 23.26502891 -177.6953125 24.8359375 C-175.25753301 25.55140707 -172.82038128 26.26896547 -170.38354492 26.98764038 C-168.81296668 27.44879564 -167.24120673 27.90594801 -165.66821289 28.35879517 C-144.60891077 34.44856198 -144.60891077 34.44856198 -138.3046875 44.1875 C-136.83469248 47.05337265 -136.07967347 49.86100001 -135.375 53 C-98.1652563 49.19306253 -56.94457243 20.23879986 -25.77734375 1.26953125 C-17.62145947 -3.0404889 -8.49704602 -3.81211883 0 0 Z " fill="#EEB06D" transform="translate(430.375,334)"/>
<path d="M0 0 C6.9643851 3.97964863 11.00834056 10.0001986 13.21875 17.64453125 C14.30568858 23.94668476 13.28271272 30.27268218 10.1796875 35.8671875 C5.08774175 42.85262062 -1.8186143 48.68204879 -8.359375 54.265625 C-10.67614621 56.25912581 -12.92919984 58.31554388 -15.1875 60.375 C-19.48459827 64.25350727 -23.91258754 67.92865968 -28.4140625 71.56640625 C-31.07295946 73.75175296 -33.67602537 75.98441844 -36.27026367 78.24511719 C-44.67850091 85.56034292 -53.44903573 92.33110412 -62.375 99 C-63.02645996 99.48887695 -63.67791992 99.97775391 -64.34912109 100.48144531 C-100.09359047 127.25557683 -140.57943441 154.93437515 -187.3046875 148.45507812 C-195.227624 147.13335028 -203.07924313 145.40380478 -210.93164062 143.72216797 C-244.61969315 136.65684896 -279.15445076 137.72957393 -313.375 138 C-313.97183594 139.10601562 -314.56867188 140.21203125 -315.18359375 141.3515625 C-317.72783137 146.06637 -321.329896 148.31829867 -326.375 150 C-330.12011744 150.28318838 -333.87036569 150.27760563 -337.625 150.3125 C-338.64980469 150.34150391 -339.67460937 150.37050781 -340.73046875 150.40039062 C-347.2135824 150.45462517 -351.10617608 149.85437455 -356.375 146 C-362.10077104 140.11947839 -362.67334186 133.90052632 -362.6496582 126.09228516 C-362.65476913 125.21668442 -362.65988007 124.34108368 -362.66514587 123.43894958 C-362.67900176 120.5555836 -362.67808801 117.67245774 -362.67578125 114.7890625 C-362.67967057 112.77655957 -362.68400572 110.76405745 -362.68876648 108.7515564 C-362.69622023 104.5368178 -362.69594366 100.32216299 -362.69067383 96.10742188 C-362.68488242 90.71846695 -362.70180648 85.32985609 -362.7250185 79.94095802 C-362.73978355 75.78526825 -362.74062373 71.62966079 -362.73750877 67.47394943 C-362.73802066 65.48771865 -362.74323338 63.5014831 -362.75332069 61.51527786 C-362.76572057 58.73212889 -362.75887201 55.94964306 -362.74731445 53.16650391 C-362.75495819 52.35377518 -362.76260193 51.54104645 -362.77047729 50.70368958 C-362.71425457 44.54772495 -361.72790623 38.81813996 -357.65625 33.94140625 C-356.77453125 33.25884766 -356.77453125 33.25884766 -355.875 32.5625 C-355.2871875 32.08941406 -354.699375 31.61632812 -354.09375 31.12890625 C-349.33634815 28.00415822 -343.65526232 28.73853698 -338.1875 28.6875 C-337.17107422 28.65849609 -336.15464844 28.62949219 -335.10742188 28.59960938 C-328.74982262 28.54625315 -323.58799556 29.10486843 -318.375 33 C-317.735625 33.928125 -317.09625 34.85625 -316.4375 35.8125 C-315.756875 36.534375 -315.07625 37.25625 -314.375 38 C-306.95600593 37.67579599 -299.95647315 35.80972812 -292.8125 33.875 C-291.66225342 33.56369141 -290.51200684 33.25238281 -289.3269043 32.93164062 C-280.22900315 30.3904917 -271.83624896 27.15448915 -263.375 23 C-258.40040862 20.60901478 -253.40931101 18.26280878 -248.375 16 C-247.56417969 15.63519531 -246.75335938 15.27039063 -245.91796875 14.89453125 C-228.62194178 8.44259825 -210.522146 14.62060287 -193.86720276 19.94889832 C-188.50036741 21.66400437 -183.10593311 23.26502891 -177.6953125 24.8359375 C-175.25753301 25.55140707 -172.82038128 26.26896547 -170.38354492 26.98764038 C-168.81296668 27.44879564 -167.24120673 27.90594801 -165.66821289 28.35879517 C-144.60891077 34.44856198 -144.60891077 34.44856198 -138.3046875 44.1875 C-136.83469248 47.05337265 -136.07967347 49.86100001 -135.375 53 C-98.1652563 49.19306253 -56.94457243 20.23879986 -25.77734375 1.26953125 C-17.62145947 -3.0404889 -8.49704602 -3.81211883 0 0 Z M-24.8125 17.1875 C-26.68206582 18.29555083 -28.55322358 19.40091905 -30.42578125 20.50390625 C-31.39854004 21.08027832 -32.37129883 21.65665039 -33.37353516 22.25048828 C-38.35492795 25.1540722 -43.42345327 27.89219486 -48.5 30.625 C-49.51529785 31.1718042 -50.5305957 31.7186084 -51.57666016 32.28198242 C-53.57585439 33.35648101 -55.57583497 34.42951803 -57.57666016 35.50097656 C-59.33548309 36.44314833 -61.09314693 37.38749037 -62.84912109 38.33496094 C-110.85138954 64.23132054 -110.85138954 64.23132054 -132 67.375 C-136.90247924 68.10607659 -140.0701081 68.90319789 -143.25 72.9375 C-143.74757813 73.63746094 -144.24515625 74.33742188 -144.7578125 75.05859375 C-147.82503099 78.74073768 -151.84881636 79.86914726 -156.375 81 C-163.99564987 81.69151837 -170.95211576 80.48756405 -178.3125 78.625 C-180.25602605 78.16202445 -182.20003334 77.70106413 -184.14453125 77.2421875 C-185.51472412 76.91492676 -185.51472412 76.91492676 -186.91259766 76.58105469 C-196.15261192 74.40068249 -205.14087961 73.67914822 -214.61181641 73.51660156 C-215.44245605 73.49178711 -216.2730957 73.46697266 -217.12890625 73.44140625 C-217.87470947 73.42795166 -218.6205127 73.41449707 -219.38891602 73.40063477 C-221.92603816 72.88884405 -222.82207049 72.04263257 -224.375 70 C-224.8125 67 -224.8125 67 -224.375 64 C-221.9595813 61.41465235 -220.4776648 61.01188628 -216.93359375 60.6015625 C-215.55993345 60.5887419 -214.18595401 60.59796165 -212.8125 60.625 C-211.69572876 60.63805176 -211.69572876 60.63805176 -210.55639648 60.65136719 C-197.70833544 60.97768413 -185.02888678 63.59647824 -172.59985352 66.72949219 C-166.11310471 68.29454904 -159.90928919 69.35765492 -153.875 66.125 C-151.25213729 63.8955667 -150.51566552 63.13537173 -150.1015625 59.79296875 C-150.05128906 58.50326172 -150.05128906 58.50326172 -150 57.1875 C-149.95101562 56.33542969 -149.90203125 55.48335938 -149.8515625 54.60546875 C-150.58454748 50.95695396 -152.4288502 49.09840073 -155.375 47 C-158.81855042 45.47961413 -162.37170043 44.44933327 -165.984375 43.40625 C-167.02458801 43.09224243 -168.06480103 42.77823486 -169.13653564 42.45471191 C-172.46174638 41.45479338 -175.79303626 40.47715084 -179.125 39.5 C-181.31944565 38.8439019 -183.51346116 38.18636324 -185.70703125 37.52734375 C-189.96409653 36.25119983 -194.22453629 34.98757418 -198.48876953 33.7355957 C-202.15776977 32.65818616 -205.8203483 31.56374172 -209.47607422 30.44213867 C-210.24502014 30.20857666 -211.01396606 29.97501465 -211.80621338 29.734375 C-213.80523997 29.12633002 -215.8023714 28.51206364 -217.79931641 27.8972168 C-230.07956474 24.81583535 -240.25170737 27.6488228 -251.375 33 C-252.12330078 33.35868164 -252.87160156 33.71736328 -253.64257812 34.08691406 C-255.23838151 34.85329371 -256.83391756 35.62023025 -258.42919922 36.38769531 C-274.50241853 44.10823148 -290.63870892 48.44590927 -307.97753906 52.41503906 C-310.49683343 52.99486602 -310.49683343 52.99486602 -313.375 54 C-313.375 76.77 -313.375 99.54 -313.375 123 C-304.320625 123.103125 -295.26625 123.20625 -285.9375 123.3125 C-254.20886359 123.79919141 -223.35239933 125.14768844 -192.4296875 132.98828125 C-161.87338288 140.46784073 -134.59297586 128.8547432 -108.66162109 113.38085938 C-97.08226407 106.32887581 -85.9967502 98.77468137 -75.28710938 90.46777344 C-73.31814327 88.95635564 -71.32776796 87.47836332 -69.328125 86.0078125 C-61.48025547 80.22907171 -53.95538867 74.21324428 -46.61328125 67.8046875 C-43.71494251 65.27687745 -40.74743618 62.84745584 -37.75 60.4375 C-32.69835959 56.33815704 -27.92464949 51.98658248 -23.15625 47.56640625 C-18.83919052 43.58282749 -14.39375129 39.75132382 -9.95703125 35.90234375 C-9.14621094 35.19207031 -8.33539063 34.48179687 -7.5 33.75 C-6.76007813 33.10546875 -6.02015625 32.4609375 -5.2578125 31.796875 C-2.27820022 28.95326162 -1.41225539 27.32465412 -0.9375 23.1875 C-1.03557346 18.35515326 -2.98696331 16.30736915 -6.375 13 C-13.28200089 9.54649956 -19.00239653 13.61993125 -24.8125 17.1875 Z " fill="#1F303F" transform="translate(430.375,334)"/>
<path d="M0 0 C2.4719687 1.00760375 4.69517201 2.04138985 7.03125 3.296875 C7.69480499 3.64126114 8.35835999 3.98564728 9.04202271 4.34046936 C11.20111943 5.46513571 13.35044943 6.60720962 15.5 7.75 C17.00913365 8.5408537 18.51874101 9.33080408 20.02880859 10.11987305 C28.77942008 14.70562 37.46700184 19.40187916 46.109375 24.18847656 C55.46593751 29.33251591 64.99011046 34.14785584 74.5 39 C96.81008178 50.39446938 96.81008178 50.39446938 107.1875 56 C108.05246094 56.46148437 108.91742188 56.92296875 109.80859375 57.3984375 C110.5871875 57.82382813 111.36578125 58.24921875 112.16796875 58.6875 C112.82047607 59.04199219 113.4729834 59.39648438 114.14526367 59.76171875 C117.25381453 61.83708666 119.70978183 63.61359255 120.50057125 67.39128971 C120.50078053 68.28471797 120.50098982 69.17814623 120.50120544 70.09864807 C120.51103958 71.12845795 120.52087372 72.15826782 120.53100586 73.21928406 C120.52133789 74.34389542 120.51166992 75.46850677 120.50170898 76.62719727 C120.50981346 78.41108856 120.50981346 78.41108856 120.51808167 80.23101807 C120.5284534 83.49458295 120.52084703 86.75749059 120.50437045 90.02101254 C120.49047839 93.45411123 120.49698656 96.88718055 120.50050354 100.32029724 C120.50320786 106.10155649 120.4897299 111.88260849 120.46655273 117.66381836 C120.44013012 124.29944012 120.43813442 130.93471129 120.4499411 137.5703674 C120.46083036 143.99040133 120.45443351 150.41031137 120.44038582 156.83033562 C120.4347024 159.54155426 120.43464761 162.25267991 120.43945122 164.96389961 C120.45332218 182.89531357 120.46230287 201.14451685 114.3125 218.25 C114.05758789 218.98049561 113.80267578 219.71099121 113.54003906 220.46362305 C104.29385154 245.92930261 86.36399242 264.19397241 64.41650391 279.33203125 C61.97001732 281.02069526 59.53635354 282.7264661 57.10546875 284.4375 C52.92162164 287.38007187 48.72850834 290.30908317 44.53222656 293.23388672 C40.35082658 296.15022373 36.17578923 299.075638 32 302 C31.18821289 302.56799316 30.37642578 303.13598633 29.54003906 303.72119141 C25.14609562 306.79556187 20.75494813 309.87384184 16.3671875 312.95703125 C15.44808594 313.60220703 14.52898437 314.24738281 13.58203125 314.91210938 C11.81043064 316.1558088 10.03956738 317.40055939 8.26953125 318.64648438 C7.47675781 319.20271484 6.68398438 319.75894531 5.8671875 320.33203125 C5.16706543 320.82421143 4.46694336 321.3163916 3.74560547 321.82348633 C0.02869428 324.32863249 -2.50264316 324.47149709 -7 324 C-9.92715164 322.50309223 -12.41980934 320.52572603 -15 318.5 C-16.59067023 317.30102333 -18.18321148 316.10452602 -19.77734375 314.91015625 C-20.62022949 314.27352051 -21.46311523 313.63688477 -22.33154297 312.98095703 C-26.99521248 309.51883312 -31.78249035 306.23610661 -36.5625 302.9375 C-38.52119567 301.57994972 -40.4795338 300.22188342 -42.4375 298.86328125 C-43.37851563 298.21053223 -44.31953125 297.5577832 -45.2890625 296.88525391 C-51.24444051 292.74373472 -57.1671396 288.5560876 -63.08300781 284.35839844 C-64.98768783 283.00872452 -66.8959451 281.66423304 -68.8046875 280.3203125 C-96.97014003 260.43969588 -118.46196532 237.03044815 -124.52570534 201.95946693 C-125.7499603 193.89001592 -126.29711792 186.06310876 -126.29052734 177.90771484 C-126.29724457 176.68314575 -126.30396179 175.45857666 -126.31088257 174.19689941 C-126.32645509 170.88760814 -126.33322662 167.57846877 -126.33451414 164.26914549 C-126.33594718 162.19693296 -126.34023765 160.12474595 -126.34550858 158.05253983 C-126.36390822 150.81186525 -126.37218949 143.5712636 -126.37060547 136.33056641 C-126.36939783 129.59443586 -126.39064688 122.85862244 -126.4220928 116.1225723 C-126.44822573 110.31674017 -126.45897445 104.51101215 -126.45769465 98.70512164 C-126.45718533 95.24653088 -126.46285516 91.78822461 -126.48405075 88.32969284 C-126.50697767 84.48578056 -126.49793082 80.64230945 -126.48583984 76.79833984 C-126.49707886 75.65652252 -126.50831787 74.5147052 -126.51989746 73.33828735 C-126.507314 71.77011261 -126.507314 71.77011261 -126.49447632 70.17025757 C-126.49556585 69.26296087 -126.49665539 68.35566418 -126.49777794 67.42087364 C-125.84187737 64.23099261 -124.46297803 63.05930709 -122 61 C-119.78369141 59.63476562 -119.78369141 59.63476562 -117.3515625 58.40625 C-116.44132324 57.94017334 -115.53108398 57.47409668 -114.59326172 56.99389648 C-113.61373535 56.50091064 -112.63420898 56.0079248 -111.625 55.5 C-109.51468229 54.4198085 -107.40532756 53.33773388 -105.296875 52.25390625 C-103.70069336 51.4343042 -103.70069336 51.4343042 -102.07226562 50.59814453 C-97.63033836 48.28752344 -93.25416029 45.86430053 -88.875 43.4375 C-76.4032195 36.5617471 -63.70230391 30.13144528 -51.02462769 23.64685059 C-50.24693024 23.24905396 -49.46923279 22.85125732 -48.66796875 22.44140625 C-47.52015427 21.85437927 -47.52015427 21.85437927 -46.34915161 21.25549316 C-40.59011077 18.30785674 -34.84735663 15.33083216 -29.125 12.3125 C-28.40973145 11.93673828 -27.69446289 11.56097656 -26.95751953 11.17382812 C-23.53187854 9.36700394 -20.13233182 7.52264949 -16.75390625 5.62890625 C-15.72402588 5.05885864 -15.72402588 5.05885864 -14.67333984 4.47729492 C-13.40574096 3.77367936 -12.14366105 3.05996324 -10.88916016 2.33325195 C-7.0089986 0.18688695 -4.39510812 -0.39814002 0 0 Z M-8.5234375 17.23828125 C-9.45212646 17.72329102 -10.38081543 18.20830078 -11.33764648 18.70800781 C-12.33997314 19.23749023 -13.3422998 19.76697266 -14.375 20.3125 C-15.40633057 20.85358398 -16.43766113 21.39466797 -17.50024414 21.95214844 C-25.03199031 25.91932634 -32.49253763 30.00618134 -39.93579102 34.13623047 C-45.4656328 37.19162943 -51.05204463 40.08568037 -56.71923828 42.87646484 C-65.60326747 47.26007538 -74.35916405 51.89297979 -83.13134766 56.49511719 C-85.90300588 57.9491173 -88.67602158 59.40050035 -91.44921875 60.8515625 C-93.13291803 61.73417371 -94.81651704 62.61697624 -96.5 63.5 C-97.25837158 63.89687012 -98.01674316 64.29374023 -98.7980957 64.70263672 C-99.51441162 65.0792041 -100.23072754 65.45577148 -100.96875 65.84375 C-101.58169922 66.16537109 -102.19464844 66.48699219 -102.82617188 66.81835938 C-104.77810524 67.87938335 -106.70794718 68.970017 -108.63586426 70.07385254 C-109.74602905 70.7094812 -110.85619385 71.34510986 -112 72 C-112.04692967 86.73506063 -112.08209079 101.47011123 -112.10362434 116.20523167 C-112.11389296 123.04854915 -112.12786773 129.89181993 -112.15087891 136.73510742 C-112.17310694 143.34870732 -112.18459475 149.96227173 -112.18975449 156.57591057 C-112.19342799 159.08945411 -112.20060093 161.60299525 -112.21146011 164.11651802 C-112.34373 188.71051918 -112.34373 188.71051918 -106.875 212.5625 C-106.41432129 213.90054688 -106.41432129 213.90054688 -105.94433594 215.265625 C-97.27520156 239.51470723 -80.07078043 255.10194361 -59.37988281 269.35693359 C-55.23817083 272.21636339 -51.12126778 275.11122381 -47 278 C-45.3073089 279.18361839 -43.61460068 280.3672123 -41.921875 281.55078125 C-38.05987721 284.25402872 -34.20698316 286.96976373 -30.36035156 289.69482422 C-28.28549044 291.16239721 -26.20542945 292.62236713 -24.125 294.08203125 C-21.24405548 296.10709287 -18.39771014 298.17317187 -15.5625 300.26171875 C-14.12516378 301.29970599 -12.68766936 302.33747422 -11.25 303.375 C-10.26628418 304.11786255 -10.26628418 304.11786255 -9.26269531 304.87573242 C-7.2093813 306.40310502 -7.2093813 306.40310502 -4 308 C-0.22205263 306.92584762 2.73072133 304.97202838 5.921875 302.7265625 C6.85604248 302.07284668 7.79020996 301.41913086 8.75268555 300.74560547 C9.74179932 300.04580566 10.73091309 299.34600586 11.75 298.625 C12.77843018 297.90328613 13.80686035 297.18157227 14.86645508 296.43798828 C17.91460407 294.29709708 20.95793003 292.1495173 24 290 C25.52983678 288.92171731 27.05977258 287.84357507 28.58984375 286.765625 C30.63117762 285.3266127 32.67154114 283.88631054 34.70922852 282.44213867 C38.45856313 279.78544422 42.22096391 277.14947034 46 274.53515625 C62.7722979 262.91785019 78.38074506 252.06058292 90 235 C90.53753906 234.21882812 91.07507813 233.43765625 91.62890625 232.6328125 C102.52326906 215.73659446 106.18153658 195.33298602 106.11352539 175.53515625 C106.11374443 173.85091301 106.11374443 173.85091301 106.1139679 172.13264465 C106.11327443 168.44257639 106.1055086 164.75255938 106.09765625 161.0625 C106.09579006 158.49560575 106.0943671 155.92871114 106.09336853 153.36181641 C106.08994799 147.3094844 106.08207642 141.25717337 106.07201904 135.20484924 C106.06081217 128.30999697 106.05533596 121.41514378 106.05032361 114.52028465 C106.03989247 100.34684668 106.02232164 86.17342399 106 72 C105.35137497 71.66168655 104.70274994 71.32337311 104.0344696 70.97480774 C101.04767673 69.41688054 98.06094738 67.85883161 95.07421875 66.30078125 C94.05420776 65.76876099 93.03419678 65.23674072 91.98327637 64.68859863 C69.04771798 52.72361503 69.04771798 52.72361503 57.75390625 46.640625 C43.16425763 38.78474133 28.50724849 31.08611169 13.75146484 23.54663086 C12.73141106 23.02440193 12.73141106 23.02440193 11.69075012 22.49162292 C10.42226228 21.84242536 9.1530204 21.19469802 7.88285828 20.54878235 C5.26180295 19.20710805 2.71446195 17.82452217 0.20483398 16.28222656 C-3.44492464 14.15970056 -4.97817001 15.38056109 -8.5234375 17.23828125 Z " fill="#1E2F3F" transform="translate(259,28)"/>
<path d="M0 0 C5.98820541 2.19993522 9.87307048 6.39346734 13.078125 11.828125 C15.48260992 17.49292846 14.62171067 24.28630722 12.375 29.875 C9.62922982 35.27019754 6.31253373 38.21116905 0.484375 40.19921875 C-3.98806028 42.5106455 -4.41397054 44.22088644 -5.9375 48.9375 C-12.7886642 68.37617907 -27.65241778 83.02541121 -46 92 C-48.88613598 93.21535889 -51.80267508 94.31744749 -54.75 95.375 C-55.44681885 95.62588379 -56.1436377 95.87676758 -56.86157227 96.13525391 C-76.55556112 102.83293704 -98.79920476 100.13071869 -117.1875 91.3125 C-132.56862302 83.50269076 -145.16821756 70.95293877 -152 55 C-152.46114237 48.84090668 -152.46114237 48.84090668 -150.9375 46.0625 C-147.79665674 44.34010208 -145.50181214 44.50851759 -142 45 C-138.97046574 48.25134987 -136.9503757 51.78183066 -134.875 55.6875 C-126.5440068 70.04217116 -113.43400282 78.61017706 -97.734375 83.32421875 C-93.80294659 84.2958432 -90.04261414 84.83184967 -86 85 C-84.77603516 85.07734375 -84.77603516 85.07734375 -83.52734375 85.15625 C-65.94854192 85.77759204 -49.40189987 79.52418233 -36.1640625 68.03515625 C-35.44992187 67.36355469 -34.73578125 66.69195312 -34 66 C-33.30648437 65.35933594 -32.61296875 64.71867187 -31.8984375 64.05859375 C-25.93558481 57.99213937 -18 46.79930551 -18 38 C-19.3921875 36.88625 -19.3921875 36.88625 -20.8125 35.75 C-24.21332627 33.01647534 -26.08735415 30.29169824 -27 26 C-27.58945868 20.17090858 -27.89111575 14.96045465 -25.4375 9.5625 C-17.30797808 1.01607952 -12.07943222 -1.17880424 0 0 Z " fill="#1F3141" transform="translate(337,172)"/>
<path d="M0 0 C1.97903603 1.61813643 2.87943182 2.41370768 3.3984375 4.9375 C3.33516786 10.5052284 3.33516786 10.5052284 1.6875 12.9375 C0 14 0 14 -3 15 C-2.37657715 15.25579834 -1.7531543 15.51159668 -1.11083984 15.77514648 C40.47037184 32.97231428 40.47037184 32.97231428 49 51 C51.82501502 58.26432433 52.09916428 65.62166601 49.5625 73 C41.3357553 91.41636181 20.66486583 101.25343439 2.875 108.125 C-4.43501844 110.86357729 -11.82454441 113.29578213 -19.3125 115.5 C-20.16537598 115.75539551 -21.01825195 116.01079102 -21.89697266 116.27392578 C-27.09374392 117.73799339 -31.59760056 118.38974025 -37 118 C-39 116.4375 -39 116.4375 -40 114 C-40.64205987 107.90043128 -40.64205987 107.90043128 -38.86547852 105.40893555 C-36.31363851 103.48161338 -33.85830655 102.8684871 -30.77734375 102.01953125 C-29.52477783 101.66415283 -28.27221191 101.30877441 -26.98168945 100.94262695 C-26.32093414 100.7585025 -25.66017883 100.57437805 -24.97940063 100.38467407 C-12.49750849 96.88704302 -0.60400421 92.83258131 11 87 C12.57201172 86.24976563 12.57201172 86.24976563 14.17578125 85.484375 C22.97661707 81.05352543 31.03549293 75.2505165 35 66 C35.77248719 61.45090878 35.07249167 58.5391422 32.8125 54.625 C24.83429542 43.69671512 8.05698858 34.97951951 -5 32 C-4.7525 32.886875 -4.505 33.77375 -4.25 34.6875 C-4 38 -4 38 -5.5 40.875 C-8 43 -8 43 -11.25 43.75 C-15.09647778 42.98070444 -15.9408109 42.48626354 -18.70703125 39.97265625 C-19.40425293 39.33956543 -20.10147461 38.70647461 -20.81982422 38.05419922 C-24.42219931 34.65997929 -27.94754972 31.19696538 -31.4375 27.6875 C-32.15615234 26.97271484 -32.87480469 26.25792969 -33.61523438 25.52148438 C-34.29779297 24.83763672 -34.98035156 24.15378906 -35.68359375 23.44921875 C-36.29775146 22.83393311 -36.91190918 22.21864746 -37.54467773 21.5847168 C-39.76417108 19.16788551 -40.00262015 17.97641864 -40.375 14.625 C-40 11 -40 11 -37.84277344 8.89355469 C-34.90646137 6.93769447 -32.53358499 5.99675723 -29.140625 5.078125 C-27.46613281 4.62373047 -27.46613281 4.62373047 -25.7578125 4.16015625 C-24.60023438 3.85980469 -23.44265625 3.55945313 -22.25 3.25 C-21.10789062 2.93417969 -19.96578125 2.61835938 -18.7890625 2.29296875 C-12.37534928 0.59001731 -6.63802715 -0.6718651 0 0 Z " fill="#1D2E3E" transform="translate(426,147)"/>
<path d="M0 0 C1.82599685 3.04332808 1.54960581 5.41749555 1.125 8.875 C-1.71164565 12.45248924 -4.29517531 13.62160743 -8.64453125 14.8046875 C-10.33787598 15.28035156 -10.33787598 15.28035156 -12.06542969 15.765625 C-13.85835449 16.25289062 -13.85835449 16.25289062 -15.6875 16.75 C-47.2642316 25.50407571 -47.2642316 25.50407571 -71.9375 45.875 C-74.04800764 49.67831065 -74.59045768 52.5027586 -73.875 56.875 C-68.74086886 69.15227012 -55.80223327 75.89595655 -44.11132812 80.78295898 C-40.71017616 82.17584184 -37.29667933 83.53332063 -33.875 84.875 C-34.060625 83.94300781 -34.24625 83.01101562 -34.4375 82.05078125 C-34.875 78.875 -34.875 78.875 -33.875 76.0625 C-31.875 73.875 -31.875 73.875 -28.6875 72.625 C-24.54718318 72.89649619 -24.10274331 73.1760972 -21.23046875 75.828125 C-20.18572388 76.7857373 -20.18572388 76.7857373 -19.11987305 77.76269531 C-18.37906494 78.45975586 -17.63825684 79.15681641 -16.875 79.875 C-15.72028198 80.93992676 -15.72028198 80.93992676 -14.54223633 82.02636719 C-12.12372517 84.28031169 -9.74715311 86.57238883 -7.375 88.875 C-6.55257812 89.64328125 -5.73015625 90.4115625 -4.8828125 91.203125 C0.91907471 96.8700846 0.91907471 96.8700846 1.90625 101.6875 C0.98590598 105.44250359 0.08315255 106.44895976 -2.875 108.875 C-5.89599609 110.06347656 -5.89599609 110.06347656 -9.3984375 111.015625 C-10.666875 111.36367188 -11.9353125 111.71171875 -13.2421875 112.0703125 C-13.90057617 112.24336914 -14.55896484 112.41642578 -15.23730469 112.59472656 C-17.24104681 113.12264115 -19.23764344 113.67278917 -21.234375 114.2265625 C-35.21035075 117.99695758 -35.21035075 117.99695758 -40.25 115.875 C-42.45430167 113.16201333 -42.37608325 111.16079469 -42.20703125 107.7421875 C-41.875 105.875 -41.875 105.875 -40.5 104 C-39.695625 103.443125 -39.695625 103.443125 -38.875 102.875 C-38.215 102.215 -37.555 101.555 -36.875 100.875 C-37.4326001 100.64949463 -37.9902002 100.42398926 -38.56469727 100.19165039 C-78.25683992 84.0089987 -78.25683992 84.0089987 -88.0703125 64.84765625 C-91.05161505 57.5391233 -90.74400827 49.43009435 -87.9765625 42.09765625 C-78.6860255 23.35185642 -56.5617843 13.55850048 -37.875 6.875 C-29.27396429 4.00461613 -20.59761767 1.35148207 -11.875 -1.125 C-10.81236938 -1.42869507 -10.81236938 -1.42869507 -9.72827148 -1.73852539 C-6.21954123 -2.47022345 -3.05261785 -1.83157071 0 0 Z " fill="#1D2E3E" transform="translate(124.875,156.125)"/>
<path d="M0 0 C0.92554688 0.24492188 1.85109375 0.48984375 2.8046875 0.7421875 C8.87936138 2.56297835 14.45719698 5.07296646 20.0625 8 C20.70606445 8.33209473 21.34962891 8.66418945 22.01269531 9.00634766 C25.48303631 10.88557701 28.0167924 12.54355247 30 16 C30.4375 18.5 30.4375 18.5 30 21 C28.01403522 23.82618065 26.74222934 24.82327873 23.375 25.625 C19.95742312 24.99211539 18.43529401 24.15623347 15.5625 22.3125 C0.65606802 12.75244788 -17.33709893 11.36345471 -34.5546875 13.42578125 C-50.46444811 16.93972567 -66.11978725 26.91020965 -75.05664062 40.62109375 C-76.19267582 42.43954589 -77.29172205 44.27466247 -78.375 46.125 C-78.72127441 46.71104004 -79.06754883 47.29708008 -79.42431641 47.90087891 C-81.49681846 51.58567328 -82.55331329 54.80114496 -83 59 C-82.2575 59.515625 -81.515 60.03125 -80.75 60.5625 C-76.45399013 64.37032693 -74.32791171 67.40320425 -73.61328125 73.0625 C-73.38804294 79.77304838 -73.66138291 85.63080231 -78 91 C-82.92656476 95.65220401 -88.14009516 97.72323502 -94.875 98.375 C-100.38443163 98.1962589 -104.75661145 96.09449108 -108.765625 92.3515625 C-113.96070592 86.57644828 -115.49192705 81.52048467 -115.3046875 73.78125 C-114.60950403 67.43547266 -111.97159183 63.48109715 -107.0625 59.5 C-103.92325768 57.15336956 -101.90680138 56.72822251 -98 57 C-97.90976563 56.17113281 -97.81953125 55.34226563 -97.7265625 54.48828125 C-96.85831461 50.31975777 -95.30275769 46.95916083 -93.375 43.1875 C-93.0138208 42.47827393 -92.6526416 41.76904785 -92.28051758 41.03833008 C-89.39118201 35.50122946 -86.22623001 30.62349563 -82 26 C-81.21109375 25.11957031 -80.4221875 24.23914063 -79.609375 23.33203125 C-59.38945989 1.90010368 -28.80182816 -7.66287171 0 0 Z " fill="#1F3142" transform="translate(276,111)"/>
<path d="M0 0 C2.3125 1.625 2.3125 1.625 4 4 C4.3884668 7.46303938 4.37807895 9.3705552 2.56640625 12.38671875 C1.57447266 13.52560547 1.57447266 13.52560547 0.5625 14.6875 C-0.1696875 15.54859375 -0.901875 16.4096875 -1.65625 17.296875 C-2.4296875 18.18890625 -3.203125 19.0809375 -4 20 C-5.484281 21.80831418 -6.96342419 23.62085728 -8.4375 25.4375 C-9.95789835 27.29202337 -11.47872702 29.14619403 -13 31 C-18.18155314 37.32130328 -23.34776719 43.65479056 -28.5 50 C-33.65223637 56.34521382 -38.81947976 62.6778466 -44 69 C-45.50014281 70.83321648 -47.00014082 72.66655146 -48.5 74.5 C-57.5 85.5 -57.5 85.5 -59.73828125 88.234375 C-61.27903713 90.1184081 -62.8180299 92.00388412 -64.35546875 93.890625 C-65.87755637 95.75690328 -67.40468304 97.61908639 -68.9375 99.4765625 C-70.21154643 101.03533901 -71.46605059 102.61061258 -72.6875 104.2109375 C-74.95231663 107.10093789 -76.52507333 108.77286116 -79.875 110.375 C-88.50781815 109.33906182 -97.08223071 97.06893344 -103.08422852 91.04614258 C-104.95409753 89.17085437 -106.82932899 87.30104535 -108.70507812 85.43164062 C-109.89615461 84.23990435 -111.0869214 83.04785845 -112.27734375 81.85546875 C-113.11784523 81.01800362 -113.11784523 81.01800362 -113.97532654 80.16362 C-118.89685548 75.21194814 -118.89685548 75.21194814 -119.25 71.0625 C-119 68 -119 68 -117.9375 66.125 C-114.67808125 64.23243427 -112.71278378 64.39134692 -109 65 C-102.33597916 69.67758584 -96.70699818 76.1735195 -91 81.9375 C-90.12988281 82.81212891 -89.25976562 83.68675781 -88.36328125 84.58789062 C-86.23986451 86.72297449 -84.11883622 88.86037205 -82 91 C-78.57911629 88.41074492 -75.86711426 85.83191956 -73.25 82.4375 C-70.39130034 78.77965165 -67.50822394 75.15083387 -64.5625 71.5625 C-63.81097656 70.64597656 -63.05945313 69.72945313 -62.28515625 68.78515625 C-61.53105469 67.86605469 -60.77695312 66.94695312 -60 66 C-58.49971683 64.16689838 -56.99971592 62.33356573 -55.5 60.5 C-51 55 -51 55 -46.5 49.5 C-45.75234375 48.58605469 -45.0046875 47.67210937 -44.234375 46.73046875 C-42.78702949 44.96177205 -41.33914699 43.19351457 -39.890625 41.42578125 C-34.85037483 35.27262912 -29.83091066 29.1028544 -24.81762695 22.92773438 C-20.8583119 18.05221901 -16.88616568 13.18755318 -12.90234375 8.33203125 C-11.538528 6.66016677 -10.20015667 4.96742141 -8.87890625 3.26171875 C-6.1301963 -0.04701942 -4.22599784 -0.50309498 0 0 Z " fill="#1F3143" transform="translate(336,118)"/>
<path d="M0 0 C0.78955078 -0.01224609 1.57910156 -0.02449219 2.39257812 -0.03710938 C4.45057435 -0.04237279 6.50812009 0.06543715 8.5625 0.1875 C11.15006967 2.77506967 10.80699787 4.53617729 10.83355713 8.06217957 C10.82950867 8.88406265 10.82546021 9.70594574 10.82128906 10.55273438 C10.8247937 11.41788162 10.82829834 12.28302887 10.83190918 13.1743927 C10.84073507 16.04342598 10.83487433 18.91221407 10.828125 21.78125 C10.8294714 23.76900276 10.83141173 25.7567552 10.83392334 27.74450684 C10.83687577 31.91417572 10.83257315 36.08375902 10.82324219 40.25341797 C10.8118476 45.60714276 10.81840644 50.96066704 10.83038712 56.31438446 C10.83760251 60.42007975 10.83531926 64.52572724 10.83013153 68.63142395 C10.82879415 70.60586063 10.83044584 72.58030161 10.83509064 74.55473328 C10.84015061 77.31069491 10.83245313 80.06632852 10.82128906 82.82226562 C10.82533752 83.64414871 10.82938599 84.4660318 10.83355713 85.31282043 C10.79102806 90.95897194 10.79102806 90.95897194 8.5625 93.1875 C5.67117823 93.35929052 2.88807935 93.4197947 0 93.375 C-0.79341797 93.37435547 -1.58683594 93.37371094 -2.40429688 93.37304688 C-8.29724478 93.32775522 -8.29724478 93.32775522 -9.4375 92.1875 C-9.53803508 89.3624667 -9.57365716 86.56184715 -9.56689453 83.73632812 C-9.56864685 82.85021347 -9.57039917 81.96409882 -9.57220459 81.0511322 C-9.5766244 78.10698518 -9.57368467 75.16289769 -9.5703125 72.21875 C-9.5709855 70.18233224 -9.5719555 68.14591456 -9.57321167 66.10949707 C-9.57468882 61.83552284 -9.57253355 57.56156947 -9.56787109 53.28759766 C-9.5621738 47.79591461 -9.56545271 42.30428043 -9.57144356 36.81259918 C-9.57504872 32.60572946 -9.57391079 28.39887141 -9.57131577 24.19200134 C-9.57064637 22.16649876 -9.57147535 20.14099514 -9.57379532 18.11549377 C-9.5763211 15.2898577 -9.5724823 12.46430193 -9.56689453 9.63867188 C-9.56891876 8.79292099 -9.57094299 7.9471701 -9.57302856 7.07579041 C-9.54312941 -1.04220366 -7.37231532 0.00598888 0 0 Z " fill="#5FB6FC" transform="translate(92.4375,376.8125)"/>
<path d="M0 0 C2.46324069 3.69486103 2.38991688 5.63293092 2 10 C0.9375 11.9375 0.9375 11.9375 -1 13 C-4.92005446 13.49891602 -7.11594538 13.55253414 -10.5 11.4375 C-12 9 -12 9 -12 5.4375 C-11 2 -11 2 -9.375 0 C-5.92336696 -1.45331917 -3.57190516 -0.92604949 0 0 Z " fill="#F5B931" transform="translate(335,186)"/>
<path d="M0 0 C2.5 1.5625 2.5 1.5625 4 4 C4 7.77684879 3.78395245 10.03513544 1.375 13 C-2.04776185 14.44116288 -4.44605372 13.85557966 -8 13 C-10 11 -10 11 -10.3125 7.0625 C-10.23081662 4.56208106 -10.12109418 3.22794199 -8.9375 1 C-5.82090489 -0.60856522 -3.43737531 -0.42213381 0 0 Z " fill="#F6B931" transform="translate(185,181)"/>
</svg>
