<?xml version="1.0" encoding="UTF-8"?>
<svg version="1.1" xmlns="http://www.w3.org/2000/svg" width="4500" height="4500">
<path d="M0 0 C889.02 0 1778.04 0 2694 0 C2694 229.35 2694 458.7 2694 695 C2633.28 695 2572.56 695 2510 695 C2510 760.67 2510 826.34 2510 894 C2570.72 894 2631.44 894 2694 894 C2694.00342989 945.29362951 2694.00342989 945.29362951 2694.0046621 964.00841993 C2694.0047832 965.84767969 2694.0047832 965.84767969 2694.00490675 967.72409621 C2694.00867482 1024.99632129 2694.01230106 1082.26854639 2694.01586914 1139.54077148 C2694.01591905 1140.34163945 2694.01596896 1141.14250742 2694.01602038 1141.96764412 C2694.02139061 1228.15080885 2694.02653951 1314.3339736 2694.042239 1656.18521954 C2694.04234323 1659.03878588 2694.04244766 1661.89235222 2694.04255217 1664.74591856 C2694.04551292 1745.6003704 2694.04827977 1826.45482226 2694.05078693 1907.30927412 C2694.05087972 1910.30168531 2694.05097252 1913.2940965 2694.05106533 1916.28650769 C2694.05109598 1917.27484858 2694.05112663 1918.26318946 2694.05115821 1919.28148007 C2694.05231126 1956.44503683 2694.05350863 1993.60859358 2694.05473244 2030.77215033 C2694.05486537 2034.81008165 2694.05499779 2038.84801298 2694.05512976 2042.8859443 C2694.05824593 2138.22494767 2694.06215987 2233.5639509 2694.06866455 2328.9029541 C2694.0687672 2330.40875475 2694.0687672 2330.40875475 2694.06887193 2331.94497561 C2694.07114902 2365.32906667 2694.0735034 2398.71315773 2694.07586844 2432.09724879 C2694.07800509 2462.26076523 2694.08011399 2492.42428167 2694.08213139 2522.58779812 C2694.08219767 2523.57864768 2694.08226395 2524.56949725 2694.08233224 2525.59037256 C2694.0864745 2587.62196792 2694.08941531 2649.65356325 2694.09113979 2711.68515873 C2694.09116658 2712.6428844 2694.09119336 2713.60061007 2694.09122096 2714.58735773 C2694.09239615 2756.64373674 2694.09332053 2798.70011575 2694.0939579 2840.75649477 C2694.09421546 2857.67471781 2694.09451019 2874.59294085 2694.09482527 2891.51116389 C2694.09487721 2894.31638699 2694.09492794 2897.12161009 2694.09497854 2899.92683319 C2694.09576165 2942.86398356 2694.09737664 2985.80113368 2694.10139394 3028.73828387 C2694.10152399 3030.12846498 2694.10152399 3030.12846498 2694.10165666 3031.54673056 C2694.10305653 3046.45653775 2694.10452544 3061.36634493 2694.10600626 3076.27615211 C2694.11020764 3118.57864128 2694.11394814 3160.88113021 2694.11413276 3203.18361962 C2694.11413674 3204.04108966 2694.11414071 3204.8985597 2694.11414481 3205.78201368 C2694.11422158 3224.48448797 2694.11402546 3243.18696225 2694.1135619 3261.88943653 C2694.11338145 3269.34730136 2694.11323843 3276.80516618 2694.11310768 3284.26303101 C2694.11308483 3285.4833581 2694.11308483 3285.4833581 2694.11306151 3286.72833827 C2694.11259543 3312.57736471 2694.11521766 3338.42638962 2694.11960873 3364.27541567 C2694.12391653 3389.70703256 2694.12522223 3415.13864755 2694.12209016 3440.57026468 C2694.1216626 3444.04608844 2694.12127018 3447.52191221 2694.12089889 3450.99773598 C2694.12078785 3452.01850944 2694.12078785 3452.01850944 2694.12067457 3453.05990459 C2694.11952925 3464.48338692 2694.12234426 3475.90686509 2694.126217 3487.33034674 C2694.12929056 3497.18959574 2694.12880607 3507.04884021 2694.12530107 3516.90808906 C2694.12341136 3522.51470622 2694.12314919 3528.12131111 2694.12723524 3533.72792737 C2694.13090436 3538.80136186 2694.13008398 3543.87477378 2694.12547626 3548.94820732 C2694.12463268 3550.78054199 2694.12550706 3552.61287834 2694.12820339 3554.44521121 C2694.13159424 3556.90958844 2694.12895905 3559.37388374 2694.12467116 3561.8382577 C2694.12713146 3562.5595422 2694.12959175 3563.28082671 2694.13212659 3564.02396832 C2694.11415841 3568.88584159 2694.11415841 3568.88584159 2693 3570 C2691.10327127 3570.09826374 2689.2028193 3570.12478326 2687.3035469 3570.12467116 C2686.05455676 3570.12702406 2684.80556661 3570.12937696 2683.51872828 3570.13180115 C2682.11085987 3570.12935368 2680.70299162 3570.12681605 2679.29512352 3570.1241985 C2677.80817861 3570.12506299 2676.3212339 3570.12636629 2674.83428971 3570.12807148 C2670.70332413 3570.13151257 2666.57238231 3570.12864053 2662.44141791 3570.12483745 C2657.94746942 3570.12179343 2653.45352399 3570.12452675 2648.95957544 3570.12654433 C2641.03798033 3570.12929014 2633.11639239 3570.12827529 2625.19479763 3570.12488318 C2613.33586626 3570.11982487 2601.47694006 3570.12050632 2589.61800801 3570.12234976 C2569.4118949 3570.12532247 2549.20578468 3570.12353465 2528.99967194 3570.11920547 C2508.50932596 3570.11483468 2488.01898148 3570.11263204 2467.52863503 3570.11310768 C2466.23675163 3570.11313637 2464.94486824 3570.11316507 2463.61383687 3570.11319463 C2457.02707645 3570.11335099 2450.44031603 3570.11354294 2443.8535556 3570.11374746 C2430.346275 3570.11414624 2416.8389944 3570.11421184 2403.3317138 3570.11413276 C2402.65189997 3570.11412901 2401.97208614 3570.11412527 2401.2716719 3570.11412141 C2367.73088276 3570.11390705 2334.19009418 3570.10993744 2300.64930534 3570.10573006 C2288.83713301 3570.10425091 2277.02496068 3570.10278958 2265.21278834 3570.10139394 C2264.1114087 3570.10126379 2264.1114087 3570.10126379 2262.98777896 3570.10113101 C2228.99339234 3570.09713571 2194.99900577 3570.09570241 2161.00461895 3570.09492797 C2158.78213795 3570.09487721 2156.55965696 3570.09482524 2154.33717596 3570.09477296 C2140.93583252 3570.09445887 2127.53448908 3570.0941715 2114.13314564 3570.09391499 C2080.81541812 3570.09327609 2047.49769061 3570.0923166 2014.17996311 3570.09113979 C2013.42141597 3570.09111316 2012.66286882 3570.09108653 2011.8813354 3570.09105909 C1962.7406047 3570.08933112 1913.59987419 3570.08628313 1864.45914364 3570.08213139 C1863.67440422 3570.0820651 1862.8896648 3570.08199881 1862.08114539 3570.08193051 C1838.19241169 3570.07990977 1814.30367799 3570.0777914 1790.41494429 3570.07565394 C1763.97896107 3570.073289 1737.54297785 3570.0709407 1711.10699463 3570.06866455 C1710.31206852 3570.06859605 1709.51714241 3570.06852755 1708.69812763 3570.06845698 C1633.21549902 3570.06195807 1557.73287034 3570.05814639 1482.25024152 3570.05503077 C1479.0535478 3570.05489862 1475.85685408 3570.0547657 1472.66016036 3570.05463275 C1443.24376795 3570.05340936 1413.82737555 3570.05221752 1384.41098314 3570.05106533 C1383.23768313 3570.05101937 1383.23768313 3570.05101937 1382.04068009 3570.05097248 C1379.67238897 3570.05087972 1377.30409786 3570.05078697 1374.93580674 3570.05069422 C1310.95315928 3570.04818829 1246.97051183 3570.04540708 1182.98786439 3570.04244758 C1180.7303004 3570.04234323 1178.4727364 3570.04223909 1176.21517241 3570.04213501 C1102.88488436 3570.03875345 1029.55459636 3570.03487599 769.40991211 3570.01586914 C768.13989804 3570.01576921 766.86988398 3570.01566927 765.56138464 3570.01556631 C746.84090071 3570.01409252 728.12041679 3570.01260585 709.39993286 3570.0111084 C708.30081261 3570.01102053 707.20169236 3570.01093266 706.06926543 3570.01084213 C662.37951028 3570.0073477 618.68975514 3570.00365661 575 3570 C575 3504 575 3438 575 3370 C509.33 3370 443.66 3370 376 3370 C376 3436 376 3502 376 3570 C281.9338502 3570.04033135 281.9338502 3570.04033135 242.74804688 3570.04882812 C233.77791339 3570.05078614 224.80777993 3570.05280667 215.83764648 3570.05493164 C214.71330961 3570.05519539 213.58897274 3570.05545914 212.43056506 3570.05573088 C194.25374997 3570.06008605 176.07693802 3570.06797308 157.9001248 3570.0771528 C139.26056562 3570.08648805 120.6210081 3570.09205534 101.98144668 3570.09408849 C90.47000263 3570.09546399 78.95856746 3570.09981601 67.44712614 3570.10791647 C59.56469299 3570.11318234 51.68226446 3570.11480466 43.79982967 3570.11350138 C39.24487533 3570.11285775 34.68993657 3570.1138783 30.13498497 3570.11920547 C25.9720896 3570.12403887 21.80922044 3570.12433905 17.64632391 3570.12089889 C16.13352959 3570.12047314 14.6207337 3570.12176938 13.10794253 3570.12488318 C11.06515271 3570.12884627 9.02235311 3570.12615675 6.97956181 3570.12304783 C5.84078054 3570.12342755 4.70199926 3570.12380727 3.52870947 3570.1241985 C1 3570 1 3570 0 3569 C-0.0979781 3566.88374356 -0.12371173 3564.76414451 -0.12304783 3562.6456213 C-0.12420167 3561.97080636 -0.12535552 3561.29599141 -0.12654433 3560.60072753 C-0.12921752 3558.31118183 -0.12468311 3556.0217047 -0.12025452 3553.73216248 C-0.12069008 3552.08550391 -0.1215647 3550.4388454 -0.12284368 3548.79218727 C-0.12509166 3544.24520991 -0.12106325 3539.69825587 -0.11606562 3535.15128148 C-0.11176562 3530.25622946 -0.11320722 3525.36117886 -0.1139679 3520.46612549 C-0.11449342 3511.97777937 -0.11134367 3503.48944091 -0.10573006 3495.00109673 C-0.09761887 3482.72822543 -0.09500023 3470.45535785 -0.09374207 3458.18248416 C-0.09155094 3438.27277705 -0.08488923 3418.36307403 -0.07543945 3398.45336914 C-0.06626689 3379.10766622 -0.05919676 3359.76196442 -0.05493164 3340.41625977 C-0.05466364 3339.21254406 -0.05439565 3338.00882835 -0.05411953 3336.76863641 C-0.05204023 3327.35543332 -0.05008326 3317.94223022 -0.04816496 3308.5290271 C-0.03872343 3262.35268099 -0.01860699 3216.17634509 0 3170 C58.08 3170 116.16 3170 176 3170 C176 3104.33 176 3038.66 176 2971 C117.92 2971 59.84 2971 0 2971 C0 1990.57 0 1010.14 0 0 Z M77 82 C77 147.67 77 213.34 77 281 C142.67 281 208.34 281 276 281 C276 215.33 276 149.66 276 82 C210.33 82 144.66 82 77 82 Z M2111 296 C2111 361.67 2111 427.34 2111 495 C2176.67 495 2242.34 495 2310 495 C2310 429.33 2310 363.66 2310 296 C2244.33 296 2178.66 296 2111 296 Z M2311 496 C2311 561.34 2311 626.68 2311 694 C2376.34 694 2441.68 694 2509 694 C2509 628.66 2509 563.32 2509 496 C2443.66 496 2378.32 496 2311 496 Z M376 612 C376 1030.11 376 1448.22 376 1879 C445.63 1879 515.26 1879 587 1879 C587 1704.76 587 1530.52 587 1351 C796.22 1351 1005.44 1351 1221 1351 C1221 1930.48 1221 2509.96 1221 3107 C1290.63 3107 1360.26 3107 1432 3107 C1432 2897.78 1432 2688.56 1432 2473 C1571.59 2473 1711.18 2473 1855 2473 C1855 2542.63 1855 2612.26 1855 2684 C1923.97 2684 1992.94 2684 2064 2684 C2064 2753.3 2064 2822.6 2064 2894 C2133.3 2894 2202.6 2894 2274 2894 C2274 2963.3 2274 3032.6 2274 3104 C2343.63 3104 2413.26 3104 2485 3104 C2485 3034.37 2485 2964.74 2485 2893 C2415.7 2893 2346.4 2893 2275 2893 C2275 2823.7 2275 2754.4 2275 2683 C2205.7 2683 2136.4 2683 2065 2683 C2065 2613.7 2065 2544.4 2065 2473 C2099.98 2473 2134.96 2473 2171 2473 C2171 2403.37 2171 2333.74 2171 2262 C2238.98 2262 2306.96 2262 2377 2262 C2377 2192.37 2377 2122.74 2377 2051 C2309.02 2051 2241.04 2051 2171 2051 C2171 1981.37 2171 1911.74 2171 1840 C1805.195 1839.505 1805.195 1839.505 1432 1839 C1431.505 1231.635 1431.505 1231.635 1431 612 C1361.7 612 1292.4 612 1221 612 C1220.505 873.36 1220.505 873.36 1220 1140 C1011.11 1140.33 802.22 1140.66 587 1141 C587 966.43 587 791.86 587 612 C517.37 612 447.74 612 376 612 Z M177 3171 C177 3236.34 177 3301.68 177 3369 C242.34 3369 307.68 3369 375 3369 C375 3303.66 375 3238.32 375 3171 C309.66 3171 244.32 3171 177 3171 Z " fill="#FFFFFF" transform="translate(1026,543)"/>
<path d="M0 0 C242.22 0 484.44 0 734 0 C734 69.96 734 139.92 734 212 C491.78 212 249.56 212 0 212 C0 142.04 0 72.08 0 0 Z " fill="#FFFFFF" transform="translate(2458,2593)"/>
</svg>
